<?xml version="1.0" encoding="utf-8"?>
<!-- Generator: Adobe Illustrator 22.1.0, SVG Export Plug-In . SVG Version: 6.00 Build 0)  -->
<svg version="1.1"
	 id="svg2" xmlns:cc="http://creativecommons.org/ns#" xmlns:dc="http://purl.org/dc/elements/1.1/" xmlns:inkscape="http://www.inkscape.org/namespaces/inkscape" xmlns:rdf="http://www.w3.org/1999/02/22-rdf-syntax-ns#" xmlns:sodipodi="http://sodipodi.sourceforge.net/DTD/sodipodi-0.dtd" xmlns:svg="http://www.w3.org/2000/svg"
	 xmlns="http://www.w3.org/2000/svg" xmlns:xlink="http://www.w3.org/1999/xlink" x="0px" y="0px" viewBox="0 0 500 500"
	 style="enable-background:new 0 0 500 500;" xml:space="preserve">
<style type="text/css">
	.st0{fill:#2B4C6F;stroke:#2B4C6F;stroke-miterlimit:10;}
	.st1{fill:#FFFFFF;stroke:#2B4C6F;stroke-miterlimit:10;}
</style>
<g id="layer1-9" transform="translate(-549.00515,80.294372)">
</g>
<g id="layer1-6" transform="translate(-575.71429,39.999999)">
</g>
<g id="layer1-92" transform="matrix(0.99533037,0,0,0.99716768,619.96997,-73.128637)">
	<g id="layer1-9-7" transform="translate(-1068,-236)">
	</g>
</g>
<g>
	<path id="rect2990-1" class="st0" d="M250,0L250,0c138.1,0,250,111.9,250,250l0,0c0,138.1-111.9,250-250,250l0,0
		C111.9,500,0,388.1,0,250l0,0C0,111.9,111.9,0,250,0z"/>
	<path id="rect2989-1-7" class="st1" d="M128.8,90C107.3,90,90,107.4,90,128.8c0,21.5,17.3,38.8,38.8,38.8s38.8-17.4,38.8-38.8
		C167.5,107.4,150.2,90,128.8,90z M331.8,191.1L331.8,191.1c-4.4,0-8.6,0.2-14.2,0.5c-12.2,0.6-40.7,13.8-51.1,34.9
		c0-9.2,0.1-17.6,0.1-30.1c-12.5,0-28.8,0.1-62.9,0.1c0,38.3-0.4,174-0.4,213.5h66.1c0-23.4,0.3-82.4,0.3-119.3
		c0-12.4,7.5-41.1,38.3-41.1c28,0,35.8,23.6,35.8,41.1c0,38.5-0.3,93-0.3,119.3H410c0-25.8,0.2-95.8-0.6-139.9
		c-1-53.6-33.5-76.5-62.8-78.3C340.6,191.4,336.2,191.1,331.8,191.1L331.8,191.1z M95.6,197.3v212.6h66.3V197.3
		C161.8,197.3,95.6,197.3,95.6,197.3z"/>
</g>
</svg>
