<?xml version="1.0" encoding="utf-8"?>
<!-- Generator: Adobe Illustrator 22.1.0, SVG Export Plug-In . SVG Version: 6.00 Build 0)  -->
<svg version="1.1" id="Calque_1" xmlns="http://www.w3.org/2000/svg" xmlns:xlink="http://www.w3.org/1999/xlink" x="0px" y="0px"
	 viewBox="0 0 162.5 65.1" style="enable-background:new 0 0 162.5 65.1;" xml:space="preserve">
<style type="text/css">
	.st0{fill:none;}
	.st1{opacity:0.9;fill:#222B2F;}
	.st2{font-family:'BodoniSvtyTwoITCTT-BookIta';}
	.st3{font-size:15.3583px;}
	.st4{opacity:0.22;fill:#222B2F;}
	.st5{fill:#222B2F;}
	.st6{fill:#FFFFFF;stroke:#222B2F;stroke-miterlimit:10;}
</style>
<g>
	<rect x="54.2" y="48.8" class="st0" width="48.7" height="14.8"/>
	<text transform="matrix(1 0 0 1 54.1685 59.7164)" class="st1 st2 st3">Avocats </text>
	<path class="st4" d="M90.5,25.8c0,3.3-0.5,6.3-1.4,9.2c-1,2.9-2.3,5.2-3.9,7c-1.8,1.9-4,2.9-6.7,2.9c-3.7,0-6.8-1.9-9.2-5.6
		c-2.4-3.7-3.6-8.5-3.6-14.3c0-6.7,1.7-12,5.1-15.9c2-2.3,4.6-3.5,7.5-3.5c3.5,0,6.3,1.6,8.4,4.9C89.2,14.4,90.5,19.6,90.5,25.8z
		 M84.7,23.9c0-5.5-0.6-9.9-1.8-13.5c-0.9-2.7-2.5-4.1-4.7-4.1c-4.5,0-6.8,6.1-6.8,18.4c0,12.8,2.4,19.3,7.2,19.3
		c2.2,0,3.8-1.9,4.8-5.6C84.3,34.9,84.7,30.1,84.7,23.9z"/>
	<path class="st4" d="M122.5,8c0,0.2-2.1,3.7-6.4,10.4c-2.4,3.8-4.1,6.7-5,8.9c-0.9,2.1-1.3,4.3-1.3,6.4c0,1.1,0.3,3.2,0.8,6.3
		c0.2,1.1,0.3,2.1,0.3,2.8c0,2.6-1,3.9-2.9,3.9c-2.3,0-3.5-2-3.5-6.1c0-3.7,1.7-8.7,5.2-14.8c2.2-3.9,5-8.3,8.5-13.4h-8.4
		c-4.4,0-6.9,0-7.6,0.1c-0.8,0-1.4,0.2-1.7,0.4c-0.3,0.2-0.5,0.5-0.7,0.9c-0.1,0.4-0.4,1.7-0.9,3.9c-0.1,0.4-0.4,0.7-0.7,0.7
		c-0.4,0-0.6-0.2-0.6-0.7s0.1-1.2,0.3-2.2c0.4-2.3,0.7-4.2,0.8-5.8c0.1-1.1,0.3-1.9,0.7-2.4c0.3,0,1,0,2.3,0.1
		c2.8,0.1,4.9,0.1,6.1,0.1h11.5c0.3,0,0.6,0,0.9-0.1c0.3,0,0.5,0,0.6,0C121.9,7.6,122.5,7.7,122.5,8z"/>
	<path class="st4" d="M57.1,45.8c0,0.3-0.4,0.5-1.1,0.5h-0.6h-1.9c-1.3,0-2.6,0-3.9,0c-2.3,0-3.8,0-4.5,0c-0.6,0-1.2,0-1.5,0
		c-0.8,0-1.2-0.2-1.2-0.5s0.2-0.5,0.7-0.5c0.7,0,1.6,0,2.4-0.1c1.1,0,1.6-0.3,1.7-0.9c0.1-0.5,0.1-1.7,0.1-3.5V14.3
		c0-1.2,0-1.9-0.1-2.1s-0.3-0.3-0.7-0.3c-0.2,0-1.3,0.1-3.4,0.3c-0.4,0-0.7,0.1-0.8,0.1c-0.4,0-0.6-0.1-0.6-0.4
		c0-0.3,0.2-0.5,0.6-0.5c1.6-0.2,3.2-0.7,4.8-1.6c1.6-0.9,2.9-1.9,3.9-3.1C51.3,6.2,51.6,6,51.7,6c0.3,0,0.4,0.2,0.4,0.6v1.1
		c0,0.3,0,0.6,0,1v33.8c0,1.4,0.1,2.1,0.2,2.4c0.1,0.2,0.5,0.4,1.3,0.4h1.2h0.9h0.8C56.8,45.2,57.1,45.4,57.1,45.8z"/>
	<g>
		<g>
			<g>
				<path class="st5" d="M57.1,12.2l4.3,0l6.9,24l-5.6,0l-0.6-2.2l-5.4,0l-0.6,2.2l-5.6,0L57.1,12.2z M54.5,33.4l0.5-1.8l8.8-0.1
					l0.5,1.8l0.7,0l-5.3-18.2l-1,0l-5,18.3L54.5,33.4z M59.3,15.9l4.3,14.7l-8.3,0.1L59.3,15.9z M60.6,28.8l-1.2-4.2l-1.2,4.2
					L60.6,28.8z"/>
			</g>
			<path class="st6" d="M68.4,32.5c0,1.5-1.5,2.7-3.3,2.7c-1.8,0-3.4-1.2-3.4-2.7L68.4,32.5z"/>
			<path class="st6" d="M57.1,32.4c0,1.5-1.5,2.7-3.3,2.7c-1.8,0-3.4-1.2-3.4-2.7L57.1,32.4z"/>
		</g>
		<path class="st5" d="M18.4,17.3c0,0.1-0.2,0.2-0.5,0.2c-0.1,0-0.2,0-0.5,0c-0.1,0-0.2,0-0.4,0c-0.4,0-0.7,0.1-0.8,0.3
			c0,0.1-0.1,0.3-0.1,0.6v9.6c0,2.5-0.5,4.3-1.4,5.4s-2.4,1.7-4.5,1.7c-2.5,0-4.2-0.7-5.2-2.1c-0.7-0.9-1-2.5-1-4.6V18.2
			c-0.1-0.3-0.3-0.5-0.6-0.6c-0.1,0-0.4,0-1,0c-0.3,0-0.4-0.1-0.4-0.3c0-0.2,0.1-0.2,0.4-0.2h0.5c0.1,0,0.3,0,0.6,0
			c0.3,0,0.5,0,0.7,0h3.7c0.1,0,0.2,0,0.3,0c0.3,0,0.4,0.1,0.4,0.3c0,0.1-0.1,0.2-0.2,0.2c-0.1,0-0.4,0-1,0.1c-0.2,0-0.4,0-0.5,0.1
			c-0.2,0.1-0.3,0.2-0.3,0.4c0,0.1,0,0.6,0,1.5v9.2c0,2.3,0.4,3.8,1.1,4.6c0.7,0.8,1.8,1.2,3.2,1.2c2.6,0,4.1-1.5,4.4-4.4
			c0.1-0.4,0.1-2.3,0.1-5.6V23v-2v-1.8c0-0.2,0-0.4,0-0.6c0-0.2,0-0.3,0-0.3c0-0.4-0.2-0.6-0.5-0.7c-0.1,0-0.5-0.1-1.1-0.1
			c-0.3,0-0.5-0.1-0.5-0.3c0-0.2,0.1-0.2,0.4-0.2c0.1,0,0.2,0,0.3,0c0.2,0,1,0,2.2,0c0.2,0,0.4,0,0.6,0c0.2,0,0.4,0,0.5,0h0.4
			C18.2,17.1,18.4,17.2,18.4,17.3z"/>
		<path class="st5" d="M38.1,17.4c0,0.2-0.2,0.2-0.6,0.2h-0.6h-0.5c-0.3,0-0.4,0-0.5,0.1c-0.1,0.1-0.1,0.4-0.1,0.9v14.8
			c0,0.9,0,1.4,0,1.6s-0.1,0.2-0.2,0.2c-0.1,0-0.2-0.1-0.4-0.3l-3.3-4.8c-1.9-2.8-4.2-6.3-6.9-10.4V34c0,0.2,0.1,0.4,0.4,0.4
			c0.2,0.1,0.8,0.1,1.7,0.1c0.2,0,0.3,0.1,0.3,0.2c0,0.2-0.2,0.3-0.7,0.3c-0.2,0-0.6,0-1.5-0.1c-0.3,0-0.5,0-0.8,0
			c0,0-0.1,0-0.4,0.1c-0.3,0-0.8,0.1-1.5,0.1h-0.3c-0.4,0-0.6-0.1-0.6-0.2c0-0.2,0.2-0.2,0.5-0.2c1,0,1.6-0.1,1.8-0.2
			c0.2-0.1,0.2-0.5,0.2-1.1V20.6c0-1.4-0.3-2.3-0.9-2.7c-0.3-0.2-0.8-0.3-1.5-0.3c-0.4,0-0.7-0.1-0.7-0.3c0-0.2,0.1-0.2,0.4-0.2
			c0.3,0,0.8,0,1.3,0.1c0.5,0,0.8,0.1,0.8,0.1c0.1,0,0.3,0,0.7,0c0.6,0,1.1,0,1.6-0.1l8.9,13.2V18.9c0-0.5,0-0.9,0-1
			c0-0.1-0.1-0.2-0.2-0.3c-0.1-0.1-0.5-0.1-1.2-0.1c-0.6,0-0.9-0.1-0.9-0.2c0-0.2,0.2-0.3,0.6-0.3h0.9c0.2,0,0.5,0,0.7,0
			c0.3,0,0.4,0,0.5,0c0,0,0.2,0,0.5,0c0.3,0,0.5,0,0.8,0h0.8C37.9,17.1,38.1,17.2,38.1,17.4z"/>
		<path class="st5" d="M46.5,34.8c0,0.1-0.1,0.2-0.3,0.2h-0.3C45.8,35,44.6,35,42.4,35c-0.4,0-0.9,0-1.3,0.1c-0.2,0-0.6,0-1,0
			c-0.2,0-0.3-0.1-0.3-0.2c0-0.1,0.2-0.2,0.7-0.2c0.7,0,1.1-0.1,1.2-0.2s0.2-0.6,0.2-1.5V19.3c0-0.8,0-1.3-0.1-1.4
			c-0.1-0.2-0.6-0.3-1.4-0.3c-0.3,0-0.5-0.1-0.5-0.2c0-0.1,0.1-0.2,0.3-0.2h3.5c0.3,0,0.8,0,1.5,0l1,0c0.3,0,0.4,0.1,0.4,0.2
			c0,0.1-0.4,0.2-1.2,0.2c-0.4,0-0.7,0.1-0.8,0.2c-0.1,0.1-0.1,0.5-0.1,1.1v13.7c0,1,0,1.5,0.1,1.6c0.2,0.2,0.8,0.3,1.7,0.3
			C46.4,34.6,46.5,34.7,46.5,34.8z"/>
		<path class="st5" d="M85.4,30.9c0,0.1,0,0.5-0.1,1.3c0,0.8-0.1,1.5-0.1,2.2v0.8c-1.7-0.1-5-0.2-10-0.2c-0.6,0-1.2,0-1.8,0
			s-1,0-1.2,0h-0.3c-0.3,0-0.5-0.1-0.5-0.2c0-0.1,0.1-0.1,0.2-0.2c0.1,0,0.4,0,1-0.1c0.4,0,0.7-0.1,0.8-0.3c0.1-0.2,0.1-0.6,0.1-1.2
			V18.7c0-0.5-0.1-0.8-0.2-0.9c-0.1-0.1-0.6-0.1-1.4-0.1c-0.3,0-0.4-0.1-0.4-0.2c0-0.1,0.2-0.2,0.6-0.2h4.4c0.2,0,1.1,0,2.9,0
			c1.8,0,3,0,3.6,0c0.5,0,1,0,1.4-0.1c0,0.7,0.1,1.8,0.2,3.1l0.1,1.1c0,0.1,0,0.2,0,0.3c0,0.2-0.1,0.3-0.2,0.3
			c-0.2,0-0.3-0.2-0.4-0.6c-0.3-1.6-0.9-2.5-1.6-2.9c-0.5-0.3-2-0.5-4.3-0.5h-2.1v7.5h0.6c1.9,0,3.1-0.1,3.5-0.4
			c0.4-0.3,0.7-1.1,0.9-2.5c0-0.4,0.1-0.5,0.3-0.5c0.2,0,0.3,0.2,0.3,0.5s0,0.8-0.1,1.4c0,0.6-0.1,1.1-0.1,1.4c0,1.8,0,3.1,0.1,3.8
			c0,0.2,0,0.3,0,0.4c0,0.2-0.1,0.3-0.3,0.3c-0.1,0-0.2-0.1-0.2-0.2c0-0.1-0.1-0.6-0.2-1.4c-0.1-1-0.6-1.6-1.3-1.9
			c-0.3-0.1-1.1-0.2-2.4-0.2h-1.2v8.6c3.8,0,6-0.1,6.6-0.2c1.1-0.3,1.8-1.3,1.9-3.2c0-0.4,0.1-0.6,0.3-0.6
			C85.3,30.4,85.4,30.5,85.4,30.9z"/>
		<path class="st5" d="M103.3,34.1c0,0.7-0.6,1.1-1.8,1.1c-1.3,0-2.4-0.6-3.1-1.7c-0.3-0.5-0.5-0.9-0.6-1.4
			c-0.1-0.4-0.2-1.6-0.4-3.4c-0.1-1.1-0.5-1.9-1.1-2.3c-0.6-0.5-1.6-0.7-2.9-0.7v8.1c0,0.3,0.3,0.6,0.8,0.6c0.2,0,0.5,0,1.2,0.1
			c0.2,0,0.3,0.1,0.3,0.2c0,0.2-0.1,0.2-0.4,0.2H95c-0.2,0-0.9,0-2.2,0c-0.3,0-0.7,0-1.3,0c-0.6,0-1,0-1.2,0h-1
			c-0.4,0-0.6-0.1-0.6-0.2c0-0.1,0.2-0.2,0.7-0.2c0.8,0,1.2-0.1,1.3-0.3c0.1-0.1,0.1-0.4,0.1-1V19c0-0.7-0.1-1.1-0.2-1.2
			c-0.1-0.1-0.6-0.2-1.3-0.2c-0.4,0-0.6-0.1-0.6-0.2c0-0.2,0.1-0.3,0.4-0.3c0.1,0,0.1,0,0.2,0l3.4,0.1c0.3,0,0.8,0,1.4,0
			c0.7,0,1.2-0.1,1.4-0.1c1.6,0,2.9,0.4,3.8,1.1c0.9,0.7,1.4,1.7,1.4,2.9c0,1.2-0.5,2.2-1.4,3c-1,0.8-2.3,1.2-3.9,1.4
			c-0.2,0-0.2,0-0.3,0.1c0,0.1,0.1,0.1,0.3,0.1c1.8,0.3,3,0.9,3.7,1.9c0.7,1,1.1,2.7,1.3,5.2c0.1,1.4,0.6,2.1,1.4,2.1
			c0.3,0,0.4-0.1,0.4-0.2c0,0,0,0,0-0.1c-0.1-0.2-0.1-0.3-0.1-0.5c0-0.4,0.2-0.5,0.6-0.5C103.1,33.5,103.3,33.7,103.3,34.1z
			 M98,21.3c0-2.4-1.1-3.7-3.2-3.7c-0.6,0-0.9,0.1-1.2,0.2c-0.2,0.2-0.3,0.4-0.3,0.8v6.5c1.6,0,2.8-0.3,3.6-0.9
			C97.7,23.7,98,22.7,98,21.3z"/>
		<path class="st5" d="M117.4,30.1c0,1.5-0.6,2.7-1.7,3.8c-1.1,1-2.5,1.6-4,1.6c-0.9,0-2-0.3-3.3-0.8c-0.3-0.2-0.6-0.2-0.8-0.2
			c-0.2,0-0.3,0.2-0.4,0.7c0,0.2-0.1,0.4-0.3,0.4c-0.2,0-0.3-0.1-0.3-0.3c0-0.1,0-0.2,0-0.3c0.1-1,0.2-2,0.2-2.9
			c0-0.2,0-0.6-0.1-1.4c0-0.1,0-0.2,0-0.4c0-0.3,0.1-0.4,0.3-0.4c0.2,0,0.3,0.2,0.4,0.6c0.4,3.1,1.9,4.6,4.3,4.6
			c1,0,1.9-0.3,2.4-0.9c0.6-0.6,0.9-1.4,0.9-2.5c0-1-0.3-1.8-0.8-2.5c-0.6-0.7-1.5-1.3-2.9-2c-1.6-0.8-2.8-1.6-3.4-2.3
			c-0.6-0.8-1-1.7-1-2.8c0-1.4,0.5-2.6,1.4-3.5c0.9-0.9,2.1-1.4,3.5-1.4c0.6,0,1.4,0.2,2.4,0.6c0.4,0.1,0.6,0.2,0.8,0.2
			c0.2,0,0.3,0,0.4-0.1c0.1-0.1,0.1-0.2,0.2-0.5c0-0.2,0.1-0.3,0.3-0.3c0.2,0,0.3,0.1,0.3,0.3c0,0.1,0,0.2,0,0.3
			c-0.1,0.4-0.1,0.9-0.1,1.5c0,0.8,0,1.5,0.1,2l0,0.4c0,0.2-0.1,0.3-0.2,0.3c-0.2,0-0.3-0.2-0.4-0.6c-0.2-1-0.6-1.9-1.3-2.5
			c-0.7-0.7-1.5-1-2.4-1c-0.9,0-1.5,0.3-2,0.8s-0.8,1.3-0.8,2.2c0,1.1,0.4,2,1.1,2.6c0.4,0.4,1.3,0.9,2.7,1.6
			c1.6,0.8,2.8,1.6,3.5,2.5C117,28.1,117.4,29,117.4,30.1z"/>
		<path class="st5" d="M127.2,35c0,0.1-0.1,0.2-0.3,0.2h-0.3c-0.1-0.1-1.3-0.1-3.5-0.1c-0.4,0-0.9,0-1.3,0.1c-0.2,0-0.6,0-1,0
			c-0.2,0-0.3-0.1-0.3-0.2c0-0.1,0.2-0.2,0.7-0.2c0.7,0,1.1-0.1,1.2-0.2c0.1-0.1,0.2-0.6,0.2-1.5V19.5c0-0.8,0-1.3-0.1-1.4
			c-0.1-0.2-0.6-0.3-1.4-0.3c-0.3,0-0.5-0.1-0.5-0.2c0-0.1,0.1-0.2,0.3-0.2h3.5c0.3,0,0.8,0,1.5,0l1,0c0.3,0,0.4,0.1,0.4,0.2
			c0,0.1-0.4,0.2-1.2,0.2c-0.4,0-0.7,0.1-0.8,0.2c-0.1,0.1-0.1,0.5-0.1,1.1v13.7c0,1,0,1.5,0.1,1.6c0.2,0.2,0.8,0.3,1.7,0.3
			C127.1,34.8,127.2,34.8,127.2,35z"/>
		<path class="st5" d="M144.1,21.8c0,0.2-0.1,0.3-0.3,0.3s-0.4-0.2-0.4-0.7c0-0.3-0.1-0.6-0.1-0.9c-0.1-0.6-0.3-1.1-0.6-1.6
			c-0.4-0.6-1-0.9-1.8-1.1c-0.5-0.1-1-0.1-1.3-0.1c-0.8,0-1.3,0-1.5,0.1v15.5c0,0.6,0.2,1,0.5,1.2c0.2,0.1,0.7,0.1,1.4,0.2
			c0.2,0,0.3,0.1,0.3,0.2c0,0.1-0.1,0.2-0.4,0.2c-0.1,0-0.3,0-0.4,0c-1,0-1.8-0.1-2.2-0.1c-0.6,0-1.1,0-1.6,0c-0.5,0-1.1,0-1.9,0
			c-0.4,0-0.6-0.1-0.6-0.2c0-0.2,0.4-0.2,1.1-0.3c0.5,0,0.9-0.1,1-0.3c0.1-0.1,0.1-0.5,0.1-1.1V17.8c-1.7,0-2.7,0.1-3.2,0.3
			c-1.1,0.4-1.7,1.4-1.9,3.2c-0.1,0.5-0.2,0.8-0.4,0.8c-0.2,0-0.3-0.2-0.3-0.5c0-0.2,0-0.4,0-0.6l0.1-0.6c0.1-0.8,0.1-1.8,0.2-3.1
			h1.2l5.2,0.1c0.6,0,1.6,0,2.9,0l4.3-0.1c0,1,0.1,2.4,0.3,4.3c0,0.1,0,0.1,0,0.2C144.1,21.7,144.1,21.8,144.1,21.8z"/>
		<path class="st5" d="M160.2,30.9c0,0.1,0,0.5-0.1,1.3c0,0.8-0.1,1.5-0.1,2.2v0.8c-1.7-0.1-5-0.2-10-0.2c-0.6,0-1.2,0-1.8,0
			c-0.6,0-1,0-1.2,0h-0.3c-0.3,0-0.5-0.1-0.5-0.2c0-0.1,0.1-0.1,0.2-0.2c0.1,0,0.4,0,1-0.1c0.4,0,0.7-0.1,0.8-0.3
			c0.1-0.2,0.1-0.6,0.1-1.2V18.7c0-0.5-0.1-0.8-0.2-0.9c-0.1-0.1-0.6-0.1-1.4-0.1c-0.3,0-0.4-0.1-0.4-0.2c0-0.1,0.2-0.2,0.6-0.2h4.4
			c0.2,0,1.1,0,2.9,0c1.8,0,3,0,3.6,0c0.5,0,1,0,1.4-0.1c0,0.7,0.1,1.8,0.2,3.1l0.1,1.1c0,0.1,0,0.2,0,0.3c0,0.2-0.1,0.3-0.2,0.3
			c-0.2,0-0.3-0.2-0.4-0.6c-0.3-1.6-0.9-2.5-1.6-2.9c-0.5-0.3-2-0.5-4.3-0.5h-2.1v7.5h0.6c1.9,0,3.1-0.1,3.5-0.4
			c0.4-0.3,0.7-1.1,0.9-2.5c0-0.4,0.1-0.5,0.3-0.5c0.2,0,0.3,0.2,0.3,0.5s0,0.8-0.1,1.4c0,0.6-0.1,1.1-0.1,1.4c0,1.8,0,3.1,0.1,3.8
			c0,0.2,0,0.3,0,0.4c0,0.2-0.1,0.3-0.3,0.3c-0.1,0-0.2-0.1-0.2-0.2c0-0.1-0.1-0.6-0.2-1.4c-0.1-1-0.6-1.6-1.3-1.9
			c-0.3-0.1-1.1-0.2-2.4-0.2h-1.2v8.6c3.8,0,6-0.1,6.6-0.2c1.1-0.3,1.8-1.3,1.9-3.2c0-0.4,0.1-0.6,0.3-0.6
			C160.1,30.4,160.2,30.5,160.2,30.9z M157.3,11.5l-2.3,2.4c-1,1.1-1.6,1.6-1.8,1.6c-0.1,0-0.2,0-0.2-0.1c0,0,0-0.1,0.1-0.2
			c0.2-0.5,0.5-1.1,0.8-2l0.8-1.8c0.3,0,0.5,0,0.8,0c0.5,0,0.9,0,1.3,0L157.3,11.5z"/>
	</g>
</g>
</svg>
