<svg height="405.8" viewBox="0 0 1080 900" width="487" xmlns="http://www.w3.org/2000/svg"><path d="m0 0h1080v900h-1080z" fill="#fff"/><g fill-opacity=".04"><path d="m90 150-90 150h180z" fill="#444"/><path d="m90 150 90-150h-180z"/><path d="m270 150 90-150h-180z" fill="#aaa"/><path d="m450 150-90 150h180z" fill="#ddd"/><path d="m450 150 90-150h-180z" fill="#999"/><path d="m630 150-90 150h180z"/><path d="m630 150 90-150h-180z" fill="#ddd"/><path d="m810 150-90 150h180z" fill="#444"/><path d="m810 150 90-150h-180z" fill="#fff"/><path d="m990 150-90 150h180z" fill="#ddd"/><path d="m990 150 90-150h-180z" fill="#444"/><path d="m90 450-90 150h180z" fill="#ddd"/><path d="m90 450 90-150h-180z"/><path d="m270 450-90 150h180z" fill="#666"/><path d="m270 450 90-150h-180z" fill="#aaa"/><path d="m450 450-90 150h180z" fill="#ddd"/><path d="m450 450 90-150h-180z" fill="#999"/><path d="m630 450-90 150h180z" fill="#999"/><path d="m630 450 90-150h-180z" fill="#fff"/><path d="m810 450-90 150h180z"/><path d="m810 450 90-150h-180z" fill="#ddd"/><path d="m990 450-90 150h180z" fill="#aaa"/><path d="m990 450 90-150h-180z" fill="#444"/><path d="m90 750-90 150h180z" fill="#222"/><path d="m270 750-90 150h180z"/><path d="m270 750 90-150h-180z" fill="#ddd"/><path d="m450 750 90-150h-180z"/><path d="m630 750-90 150h180z"/><path d="m630 750 90-150h-180z" fill="#444"/><path d="m810 750-90 150h180z" fill="#aaa"/><path d="m810 750 90-150h-180z" fill="#666"/><path d="m990 750-90 150h180z" fill="#999"/><path d="m180 0-90 150h180z" fill="#999"/><path d="m360 0-90 150h180z" fill="#444"/><path d="m540 0-90 150h180z" fill="#fff"/><path d="m900 0-90 150h180z"/><path d="m0 300-90 150h180z" fill="#222"/><path d="m0 300 90-150h-180z" fill="#fff"/><path d="m180 300-90 150h180z" fill="#fff"/><path d="m180 300 90-150h-180z" fill="#666"/><path d="m360 300-90 150h180z" fill="#222"/><path d="m360 300 90-150h-180z" fill="#fff"/><path d="m540 300-90 150h180z" fill="#444"/><path d="m540 300 90-150h-180z" fill="#222"/><path d="m720 300-90 150h180z" fill="#aaa"/><path d="m720 300 90-150h-180z" fill="#666"/><path d="m900 300-90 150h180z" fill="#fff"/><path d="m900 300 90-150h-180z" fill="#999"/><path d="m0 600-90 150h180z"/><path d="m0 600 90-150h-180z" fill="#666"/><path d="m180 600-90 150h180z" fill="#aaa"/><path d="m180 600 90-150h-180z" fill="#444"/><path d="m360 600-90 150h180z" fill="#444"/><path d="m360 600 90-150h-180z" fill="#999"/><path d="m540 600 90-150h-180z" fill="#666"/><path d="m720 600-90 150h180z" fill="#222"/><path d="m900 600-90 150h180z" fill="#fff"/><path d="m900 600 90-150h-180z" fill="#222"/><path d="m0 900 90-150h-180z" fill="#ddd"/><path d="m180 900 90-150h-180z" fill="#444"/><path d="m360 900 90-150h-180z" fill="#fff"/><path d="m540 900 90-150h-180z" fill="#aaa"/><path d="m720 900 90-150h-180z" fill="#fff"/><path d="m900 900 90-150h-180z" fill="#222"/><path d="m1080 300-90 150h180z" fill="#222"/><path d="m1080 300 90-150h-180z" fill="#fff"/><path d="m1080 600-90 150h180z"/><path d="m1080 600 90-150h-180z" fill="#666"/><path d="m1080 900 90-150h-180z" fill="#ddd"/></g></svg>