<svg enable-background="new 0 0 64 64" height="64" viewBox="0 0 64 64" width="64" xmlns="http://www.w3.org/2000/svg"><path d="m63.766 26.698-.027-.062.015-.012-.198-.378-10.62-20.221c-.29-.528-1.299-2.078-3.24-2.078h-35.577c-2.166 0-3.25 2.134-3.274 2.184l-10.43 19.859-.004.009-.074.14c-.175.346-.563 1.286-.178 2.214 2.65 4.302 7.374 7.188 12.797 7.188 5.302 0 9.927-2.765 12.607-6.908.41-.941-.161-2.12-.161-2.12l-9.868-18.792-.096-.182c-.133-.306-.251-.889.807-.889h12.938c.367.012 1.39.194 1.39 1.907v44.518c-.024.441-.191 1.334-1.108 1.9l-6.477 4.006s-1.699 1.072 0 1.072h18.379c1.253 0 0-.869 0-.869l-6.672-4.084c-.003-.002-.003-.004-.006-.006-1.097-.672-1.302-1.518-1.332-1.945v-44.782c0-1.548 1.11-1.708 1.5-1.717h12.651c.331.006 1.34.116.705 1.331l-9.907 18.858s-.31.742.039 1.556c2.653 4.278 7.359 7.146 12.765 7.146 5.415 0 10.138-2.874 12.788-7.166.265-.692-.033-1.46-.132-1.677zm-41.568-.594.001.001.136.261c.21.434.527 1.26-.136 1.26l-18.808-.002c-.624 0-.5-.571-.301-1.032l.298-.566.003-.005 8.966-17.072s.458-.708.83 0h.001zm19.38.207.133-.253c0-.001.005-.01.005-.01l8.766-16.691c.012-.018.607-1.15 1.213.003l8.74 16.639c.181.358.734 1.629-.563 1.629l-17.455-.003c-.003 0-.003 0-.003 0-1.272-.001-1.042-.867-.836-1.314z" fill="#241f20"/></svg>