<svg viewBox="0 0 100 60" xmlns="http://www.w3.org/2000/svg"><path d="m0 0h100v60h-100z" fill="#d0d5d6"/><path d="m0 0h11v11h-11z" fill="#d0d5d6"/><path d="m10 0h11v11h-11z" fill="#d1d6d7"/><path d="m0 10h11v11h-11z" fill="#d2d6d7"/><path d="m20 0h11v11h-11z" fill="#d2d7d8"/><path d="m10 10h11v11h-11z" fill="#d3d8d9"/><path d="m0 20h11v11h-11z" fill="#d4d9d9"/><path d="m30 0h11v11h-11z" fill="#d5d9da"/><path d="m20 10h11v11h-11z" fill="#d5dadb"/><path d="m10 20h11v11h-11z" fill="#d6dbdb"/><path d="m0 30h11v11h-11z" fill="#d7dbdc"/><path d="m40 0h11v11h-11z" fill="#d8dcdd"/><path d="m30 10h11v11h-11z" fill="#d9ddde"/><path d="m20 20h11v11h-11z" fill="#d9ddde"/><path d="m10 30h11v11h-11z" fill="#dadedf"/><path d="m0 40h11v11h-11z" fill="#dbdfe0"/><path d="m50 0h11v11h-11z" fill="#dce0e0"/><path d="m40 10h11v11h-11z" fill="#dde0e1"/><path d="m30 20h11v11h-11z" fill="#dde1e2"/><path d="m20 30h11v11h-11z" fill="#dee2e2"/><path d="m10 40h11v11h-11z" fill="#dfe2e3"/><path d="m0 50h11v11h-11z" fill="#e0e3e4"/><path d="m60 0h11v11h-11z" fill="#e1e4e4"/><path d="m50 10h11v11h-11z" fill="#e1e4e5"/><path d="m40 20h11v11h-11z" fill="#e2e5e6"/><path d="m30 30h11v11h-11z" fill="#e3e6e7"/><path d="m20 40h11v11h-11z" fill="#e4e7e7"/><path d="m10 50h11v11h-11z" fill="#e5e7e8"/><path d="m70 0h11v11h-11z" fill="#e5e8e9"/><path d="m60 10h11v11h-11z" fill="#e6e9e9"/><path d="m50 20h11v11h-11z" fill="#e7e9ea"/><path d="m40 30h11v11h-11z" fill="#e8eaeb"/><path d="m30 40h11v11h-11z" fill="#e8ebeb"/><path d="m20 50h11v11h-11z" fill="#e9ecec"/><path d="m80 0h11v11h-11z" fill="#eaeced"/><path d="m70 10h11v11h-11z" fill="#ebeded"/><path d="m60 20h11v11h-11z" fill="#eceeee"/><path d="m50 30h11v11h-11z" fill="#eceeef"/><path d="m40 40h11v11h-11z" fill="#edeff0"/><path d="m30 50h11v11h-11z" fill="#eef0f0"/><path d="m90 0h11v11h-11z" fill="#eff1f1"/><path d="m80 10h11v11h-11z" fill="#f0f1f2"/><path d="m70 20h11v11h-11z" fill="#f0f2f2"/><path d="m60 30h11v11h-11z" fill="#f1f3f3"/><path d="m50 40h11v11h-11z" fill="#f2f3f4"/><path d="m40 50h11v11h-11z" fill="#f3f4f4"/><path d="m90 10h11v11h-11z" fill="#f4f5f5"/><path d="m80 20h11v11h-11z" fill="#f5f6f6"/><path d="m70 30h11v11h-11z" fill="#f5f6f7"/><path d="m60 40h11v11h-11z" fill="#f6f7f7"/><path d="m50 50h11v11h-11z" fill="#f7f8f8"/><path d="m90 20h11v11h-11z" fill="#f8f9f9"/><path d="m80 30h11v11h-11z" fill="#f9f9f9"/><path d="m70 40h11v11h-11z" fill="#f9fafa"/><path d="m60 50h11v11h-11z" fill="#fafbfb"/><path d="m90 30h11v11h-11z" fill="#fbfbfb"/><path d="m80 40h11v11h-11z" fill="#fcfcfc"/><path d="m70 50h11v11h-11z" fill="#fdfdfd"/><path d="m90 40h11v11h-11z" fill="#fdfefe"/><path d="m80 50h11v11h-11z" fill="#fefefe"/><path d="m90 50h11v11h-11z" fill="#fff"/></svg>