<svg enable-background="new 0 0 500 500" viewBox="0 0 500 500" xmlns="http://www.w3.org/2000/svg"><g stroke="#2b4c6f" stroke-miterlimit="10"><path d="m250 0c138.1 0 250 111.9 250 250 0 138.1-111.9 250-250 250-138.1 0-250-111.9-250-250 0-138.1 111.9-250 250-250z" fill="#2b4c6f"/><path d="m128.8 90c-21.5 0-38.8 17.4-38.8 38.8 0 21.5 17.3 38.8 38.8 38.8s38.8-17.4 38.8-38.8c-.1-21.4-17.4-38.8-38.8-38.8zm203 101.1c-4.4 0-8.6.2-14.2.5-12.2.6-40.7 13.8-51.1 34.9 0-9.2.1-17.6.1-30.1-12.5 0-28.8.1-62.9.1 0 38.3-.4 174-.4 213.5h66.1c0-23.4.3-82.4.3-119.3 0-12.4 7.5-41.1 38.3-41.1 28 0 35.8 23.6 35.8 41.1 0 38.5-.3 93-.3 119.3h66.5c0-25.8.2-95.8-.6-139.9-1-53.6-33.5-76.5-62.8-78.3-6-.4-10.4-.7-14.8-.7zm-236.2 6.2v212.6h66.3v-212.6c-.1 0-66.3 0-66.3 0z" fill="#fff"/></g></svg>