<svg enable-background="new 0 0 162.5 65.1" viewBox="0 0 162.5 65.1" xml:space="preserve" xmlns="http://www.w3.org/2000/svg"><path d="m54.2 48.8h48.7v14.8h-48.7z" fill="none"/><text fill="#222b2f" font-family="'BodoniSvtyTwoITCTT-BookIta'" font-size="15.3583" opacity=".9" transform="translate(54.1685 59.7164)">Avocats </text><path d="m90.5 25.8c0 3.3-.5 6.3-1.4 9.2-1 2.9-2.3 5.2-3.9 7-1.8 1.9-4 2.9-6.7 2.9-3.7 0-6.8-1.9-9.2-5.6s-3.6-8.5-3.6-14.3c0-6.7 1.7-12 5.1-15.9 2-2.3 4.6-3.5 7.5-3.5 3.5 0 6.3 1.6 8.4 4.9 2.5 3.9 3.8 9.1 3.8 15.3zm-5.8-1.9c0-5.5-.6-9.9-1.8-13.5-.9-2.7-2.5-4.1-4.7-4.1-4.5 0-6.8 6.1-6.8 18.4 0 12.8 2.4 19.3 7.2 19.3 2.2 0 3.8-1.9 4.8-5.6.9-3.5 1.3-8.3 1.3-14.5z" fill="#222b2f" opacity=".22"/><path d="m122.5 8c0 .2-2.1 3.7-6.4 10.4-2.4 3.8-4.1 6.7-5 8.9-.9 2.1-1.3 4.3-1.3 6.4 0 1.1.3 3.2.8 6.3.2 1.1.3 2.1.3 2.8 0 2.6-1 3.9-2.9 3.9-2.3 0-3.5-2-3.5-6.1 0-3.7 1.7-8.7 5.2-14.8 2.2-3.9 5-8.3 8.5-13.4h-8.4c-4.4 0-6.9 0-7.6.1-.8 0-1.4.2-1.7.4s-.5.5-.7.9c-.1.4-.4 1.7-.9 3.9-.1.4-.4.7-.7.7-.4 0-.6-.2-.6-.7s.1-1.2.3-2.2c.4-2.3.7-4.2.8-5.8.1-1.1.3-1.9.7-2.4.3 0 1 0 2.3.1 2.8.1 4.9.1 6.1.1h11.5c.3 0 .6 0 .9-.1h.6c1.1.2 1.7.3 1.7.6z" fill="#222b2f" opacity=".22"/><path d="m57.1 45.8c0 .3-.4.5-1.1.5h-.6-1.9c-1.3 0-2.6 0-3.9 0-2.3 0-3.8 0-4.5 0-.6 0-1.2 0-1.5 0-.8 0-1.2-.2-1.2-.5s.2-.5.7-.5c.7 0 1.6 0 2.4-.1 1.1 0 1.6-.3 1.7-.9.1-.5.1-1.7.1-3.5v-26.5c0-1.2 0-1.9-.1-2.1s-.3-.3-.7-.3c-.2 0-1.3.1-3.4.3-.4 0-.7.1-.8.1-.4 0-.6-.1-.6-.4s.2-.5.6-.5c1.6-.2 3.2-.7 4.8-1.6s2.9-1.9 3.9-3.1c.3-.5.6-.7.7-.7.3 0 .4.2.4.6v1.1 1 33.8c0 1.4.1 2.1.2 2.4.1.2.5.4 1.3.4h1.2.9.8c.3-.1.6.1.6.5z" fill="#222b2f" opacity=".22"/><path d="m57.1 12.2h4.3l6.9 24h-5.6l-.6-2.2h-5.4l-.6 2.2h-5.6zm-2.6 21.2.5-1.8 8.8-.1.5 1.8h.7l-5.3-18.2h-1l-5 18.3zm4.8-17.5 4.3 14.7-8.3.1zm1.3 12.9-1.2-4.2-1.2 4.2z" fill="#222b2f"/><path d="m68.4 32.5c0 1.5-1.5 2.7-3.3 2.7s-3.4-1.2-3.4-2.7z" fill="#fff" stroke="#222b2f" stroke-miterlimit="10"/><path d="m57.1 32.4c0 1.5-1.5 2.7-3.3 2.7s-3.4-1.2-3.4-2.7z" fill="#fff" stroke="#222b2f" stroke-miterlimit="10"/><g fill="#222b2f"><path d="m18.4 17.3c0 .1-.2.2-.5.2-.1 0-.2 0-.5 0-.1 0-.2 0-.4 0-.4 0-.7.1-.8.3 0 .1-.1.3-.1.6v9.6c0 2.5-.5 4.3-1.4 5.4s-2.4 1.7-4.5 1.7c-2.5 0-4.2-.7-5.2-2.1-.7-.9-1-2.5-1-4.6v-10.2c-.1-.3-.3-.5-.6-.6-.1 0-.4 0-1 0-.3 0-.4-.1-.4-.3s.1-.2.4-.2h.5.6.7 3.7.3c.3 0 .4.1.4.3 0 .1-.1.2-.2.2s-.4 0-1 .1c-.2 0-.4 0-.5.1-.2.1-.3.2-.3.4v1.5 9.2c0 2.3.4 3.8 1.1 4.6s1.8 1.2 3.2 1.2c2.6 0 4.1-1.5 4.4-4.4.1-.4.1-2.3.1-5.6v-1.7-2-1.8c0-.2 0-.4 0-.6s0-.3 0-.3c0-.4-.2-.6-.5-.7-.1 0-.5-.1-1.1-.1-.3 0-.5-.1-.5-.3s.1-.2.4-.2h.3 2.2.6.5.4c.5.1.7.2.7.3z"/><path d="m38.1 17.4c0 .2-.2.2-.6.2h-.6-.5c-.3 0-.4 0-.5.1s-.1.4-.1.9v14.8 1.6s-.1.2-.2.2-.2-.1-.4-.3l-3.3-4.8c-1.9-2.8-4.2-6.3-6.9-10.4v14.3c0 .2.1.4.4.4.2.1.8.1 1.7.1.2 0 .3.1.3.2 0 .2-.2.3-.7.3-.2 0-.6 0-1.5-.1-.3 0-.5 0-.8 0 0 0-.1 0-.4.1-.3 0-.8.1-1.5.1h-.3c-.4 0-.6-.1-.6-.2 0-.2.2-.2.5-.2 1 0 1.6-.1 1.8-.2s.2-.5.2-1.1v-12.8c0-1.4-.3-2.3-.9-2.7-.3-.2-.8-.3-1.5-.3-.4 0-.7-.1-.7-.3s.1-.2.4-.2.8 0 1.3.1c.5 0 .8.1.8.1h.7c.6 0 1.1 0 1.6-.1l8.9 13.2v-11.5c0-.5 0-.9 0-1s-.1-.2-.2-.3-.5-.1-1.2-.1c-.6 0-.9-.1-.9-.2 0-.2.2-.3.6-.3h.9.7.5.5.8.8c.7.1.9.2.9.4z"/><path d="m46.5 34.8c0 .1-.1.2-.3.2h-.3c-.1 0-1.3 0-3.5 0-.4 0-.9 0-1.3.1-.2 0-.6 0-1 0-.2 0-.3-.1-.3-.2s.2-.2.7-.2c.7 0 1.1-.1 1.2-.2s.2-.6.2-1.5v-13.7c0-.8 0-1.3-.1-1.4-.1-.2-.6-.3-1.4-.3-.3 0-.5-.1-.5-.2s.1-.2.3-.2h3.5 1.5 1c.3 0 .4.1.4.2s-.4.2-1.2.2c-.4 0-.7.1-.8.2s-.1.5-.1 1.1v13.7c0 1 0 1.5.1 1.6.2.2.8.3 1.7.3.1.1.2.2.2.3z"/><path d="m85.4 30.9c0 .1 0 .5-.1 1.3 0 .8-.1 1.5-.1 2.2v.8c-1.7-.1-5-.2-10-.2-.6 0-1.2 0-1.8 0s-1 0-1.2 0h-.3c-.3 0-.5-.1-.5-.2s.1-.1.2-.2c.1 0 .4 0 1-.1.4 0 .7-.1.8-.3s.1-.6.1-1.2v-14.3c0-.5-.1-.8-.2-.9s-.6-.1-1.4-.1c-.3 0-.4-.1-.4-.2s.2-.2.6-.2h4.4 2.9 3.6c.5 0 1 0 1.4-.1 0 .7.1 1.8.2 3.1l.1 1.1v.3c0 .2-.1.3-.2.3-.2 0-.3-.2-.4-.6-.3-1.6-.9-2.5-1.6-2.9-.5-.3-2-.5-4.3-.5h-2.1v7.5h.6c1.9 0 3.1-.1 3.5-.4s.7-1.1.9-2.5c0-.4.1-.5.3-.5s.3.2.3.5 0 .8-.1 1.4c0 .6-.1 1.1-.1 1.4 0 1.8 0 3.1.1 3.8v.4c0 .2-.1.3-.3.3-.1 0-.2-.1-.2-.2s-.1-.6-.2-1.4c-.1-1-.6-1.6-1.3-1.9-.3-.1-1.1-.2-2.4-.2h-1.2v8.6c3.8 0 6-.1 6.6-.2 1.1-.3 1.8-1.3 1.9-3.2 0-.4.1-.6.3-.6.5-.4.6-.3.6.1z"/><path d="m103.3 34.1c0 .7-.6 1.1-1.8 1.1-1.3 0-2.4-.6-3.1-1.7-.3-.5-.5-.9-.6-1.4-.1-.4-.2-1.6-.4-3.4-.1-1.1-.5-1.9-1.1-2.3-.6-.5-1.6-.7-2.9-.7v8.1c0 .3.3.6.8.6.2 0 .5 0 1.2.1.2 0 .3.1.3.2 0 .2-.1.2-.4.2h-.3c-.2 0-.9 0-2.2 0-.3 0-.7 0-1.3 0s-1 0-1.2 0h-1c-.4 0-.6-.1-.6-.2s.2-.2.7-.2c.8 0 1.2-.1 1.3-.3.1-.1.1-.4.1-1v-14.2c0-.7-.1-1.1-.2-1.2s-.6-.2-1.3-.2c-.4 0-.6-.1-.6-.2 0-.2.1-.3.4-.3h.2l3.4.1h1.4c.7 0 1.2-.1 1.4-.1 1.6 0 2.9.4 3.8 1.1s1.4 1.7 1.4 2.9-.5 2.2-1.4 3c-1 .8-2.3 1.2-3.9 1.4-.2 0-.2 0-.3.1 0 .1.1.1.3.1 1.8.3 3 .9 3.7 1.9s1.1 2.7 1.3 5.2c.1 1.4.6 2.1 1.4 2.1.3 0 .4-.1.4-.2 0 0 0 0 0-.1-.1-.2-.1-.3-.1-.5 0-.4.2-.5.6-.5.4-.1.6.1.6.5zm-5.3-12.8c0-2.4-1.1-3.7-3.2-3.7-.6 0-.9.1-1.2.2-.2.2-.3.4-.3.8v6.5c1.6 0 2.8-.3 3.6-.9.8-.5 1.1-1.5 1.1-2.9z"/><path d="m117.4 30.1c0 1.5-.6 2.7-1.7 3.8-1.1 1-2.5 1.6-4 1.6-.9 0-2-.3-3.3-.8-.3-.2-.6-.2-.8-.2s-.3.2-.4.7c0 .2-.1.4-.3.4s-.3-.1-.3-.3c0-.1 0-.2 0-.3.1-1 .2-2 .2-2.9 0-.2 0-.6-.1-1.4 0-.1 0-.2 0-.4 0-.3.1-.4.3-.4s.3.2.4.6c.4 3.1 1.9 4.6 4.3 4.6 1 0 1.9-.3 2.4-.9.6-.6.9-1.4.9-2.5 0-1-.3-1.8-.8-2.5-.6-.7-1.5-1.3-2.9-2-1.6-.8-2.8-1.6-3.4-2.3-.6-.8-1-1.7-1-2.8 0-1.4.5-2.6 1.4-3.5s2.1-1.4 3.5-1.4c.6 0 1.4.2 2.4.6.4.1.6.2.8.2s.3 0 .4-.1.1-.2.2-.5c0-.2.1-.3.3-.3s.3.1.3.3v.3c-.1.4-.1.9-.1 1.5 0 .8 0 1.5.1 2v.4c0 .2-.1.3-.2.3-.2 0-.3-.2-.4-.6-.2-1-.6-1.9-1.3-2.5-.7-.7-1.5-1-2.4-1s-1.5.3-2 .8-.8 1.3-.8 2.2c0 1.1.4 2 1.1 2.6.4.4 1.3.9 2.7 1.6 1.6.8 2.8 1.6 3.5 2.5.6.6 1 1.5 1 2.6z"/><path d="m127.2 35c0 .1-.1.2-.3.2h-.3c-.1-.1-1.3-.1-3.5-.1-.4 0-.9 0-1.3.1-.2 0-.6 0-1 0-.2 0-.3-.1-.3-.2s.2-.2.7-.2c.7 0 1.1-.1 1.2-.2s.2-.6.2-1.5v-13.6c0-.8 0-1.3-.1-1.4-.1-.2-.6-.3-1.4-.3-.3 0-.5-.1-.5-.2s.1-.2.3-.2h3.5 1.5 1c.3 0 .4.1.4.2s-.4.2-1.2.2c-.4 0-.7.1-.8.2s-.1.5-.1 1.1v13.7c0 1 0 1.5.1 1.6.2.2.8.3 1.7.3.1.1.2.1.2.3z"/><path d="m144.1 21.8c0 .2-.1.3-.3.3s-.4-.2-.4-.7c0-.3-.1-.6-.1-.9-.1-.6-.3-1.1-.6-1.6-.4-.6-1-.9-1.8-1.1-.5-.1-1-.1-1.3-.1-.8 0-1.3 0-1.5.1v15.5c0 .6.2 1 .5 1.2.2.1.7.1 1.4.2.2 0 .3.1.3.2s-.1.2-.4.2c-.1 0-.3 0-.4 0-1 0-1.8-.1-2.2-.1-.6 0-1.1 0-1.6 0s-1.1 0-1.9 0c-.4 0-.6-.1-.6-.2 0-.2.4-.2 1.1-.3.5 0 .9-.1 1-.3.1-.1.1-.5.1-1.1v-15.3c-1.7 0-2.7.1-3.2.3-1.1.4-1.7 1.4-1.9 3.2-.1.5-.2.8-.4.8s-.3-.2-.3-.5c0-.2 0-.4 0-.6l.1-.6c.1-.8.1-1.8.2-3.1h1.2l5.2.1h2.9l4.3-.1c0 1 .1 2.4.3 4.3v.2c.3-.1.3 0 .3 0z"/><path d="m160.2 30.9c0 .1 0 .5-.1 1.3 0 .8-.1 1.5-.1 2.2v.8c-1.7-.1-5-.2-10-.2-.6 0-1.2 0-1.8 0s-1 0-1.2 0h-.3c-.3 0-.5-.1-.5-.2s.1-.1.2-.2c.1 0 .4 0 1-.1.4 0 .7-.1.8-.3s.1-.6.1-1.2v-14.3c0-.5-.1-.8-.2-.9s-.6-.1-1.4-.1c-.3 0-.4-.1-.4-.2s.2-.2.6-.2h4.4 2.9 3.6c.5 0 1 0 1.4-.1 0 .7.1 1.8.2 3.1l.1 1.1v.3c0 .2-.1.3-.2.3-.2 0-.3-.2-.4-.6-.3-1.6-.9-2.5-1.6-2.9-.5-.3-2-.5-4.3-.5h-2.1v7.5h.6c1.9 0 3.1-.1 3.5-.4s.7-1.1.9-2.5c0-.4.1-.5.3-.5s.3.2.3.5 0 .8-.1 1.4c0 .6-.1 1.1-.1 1.4 0 1.8 0 3.1.1 3.8v.4c0 .2-.1.3-.3.3-.1 0-.2-.1-.2-.2s-.1-.6-.2-1.4c-.1-1-.6-1.6-1.3-1.9-.3-.1-1.1-.2-2.4-.2h-1.2v8.6c3.8 0 6-.1 6.6-.2 1.1-.3 1.8-1.3 1.9-3.2 0-.4.1-.6.3-.6.5-.4.6-.3.6.1zm-2.9-19.4-2.3 2.4c-1 1.1-1.6 1.6-1.8 1.6-.1 0-.2 0-.2-.1 0 0 0-.1.1-.2.2-.5.5-1.1.8-2l.8-1.8h.8 1.3z"/></g></svg>