<svg enable-background="new 0 0 33 25" viewBox="0 0 33 25" xmlns="http://www.w3.org/2000/svg"><path d="m18 6.5c0-2 .7-3.6 2-4.7 1.3-1.2 3-1.8 4.9-1.8 2.5 0 4.5.8 5.9 2.4 1.5 1.6 2.2 3.7 2.2 6.4s-.4 5-1.3 6.9-1.9 3.5-3.1 4.7c-1.2 1.3-2.4 2.2-3.7 3-1.3.7-2.4 1.2-3.4 1.6l-3.3-5.5c1.4-.5 2.5-1.4 3.5-2.6s1.5-2.5 1.6-3.8c-1.4 0-2.6-.6-3.7-1.8-1-1.2-1.6-2.8-1.6-4.8zm-17.6 0c0-2 .7-3.6 2-4.7 1.3-1.2 2.9-1.8 4.9-1.8 2.5 0 4.5.8 5.9 2.4s2.1 3.7 2.1 6.4-.4 5-1.3 6.9-1.9 3.5-3.1 4.7c-1.2 1.3-2.4 2.2-3.7 3-1.2.7-2.3 1.3-3.3 1.6l-3.3-5.5c1.4-.5 2.5-1.4 3.5-2.6s1.5-2.5 1.6-3.8c-1.4 0-2.6-.6-3.7-1.8-1.1-1.2-1.6-2.8-1.6-4.8z" fill="#2b4c6f"/></svg>