<svg enable-background="new 0 0 512 512" viewBox="0 0 512 512" xmlns="http://www.w3.org/2000/svg"><path d="m256 28c-125.9 0-228 102.1-228 228s102.1 228 228 228 228-102.1 228-228-102.1-228-228-228zm84.7 75c25.8 0 46.7 20.9 46.7 46.7s-20.9 46.7-46.7 46.7-46.7-20.9-46.7-46.7 20.9-46.7 46.7-46.7zm-38.1 166.7c0 25.8-20.9 46.7-46.7 46.7s-46.7-20.9-46.7-46.7 20.9-46.7 46.7-46.7 46.7 20.9 46.7 46.7zm-131.3-166.7c25.8 0 46.7 20.9 46.7 46.7s-20.9 46.7-46.7 46.7-46.7-20.9-46.7-46.7 20.9-46.7 46.7-46.7zm-75.4 160.8v-57.5c0-14.9 12.2-27.2 27.2-27.2h2.3c9.5 15.5 26.5 25.8 46 25.8s36.5-10.3 46-25.8h2.3c14.9 0 27.2 12.2 27.2 27.2v11c-25.2 4.3-44.4 26.2-44.4 52.4 0 7.6 1.6 14.8 4.5 21.3h-84c-14.9 0-27.1-12.2-27.1-27.2zm235.5 118c0 14.9-12.2 27.2-27.2 27.2h-96.5c-14.9 0-27.2-12.2-27.2-27.2v-57.5c0-14.9 12.2-27.2 27.2-27.2h2.3c9.5 15.5 26.5 25.8 46 25.8s36.5-10.3 46-25.8h2.3c14.9 0 27.2 12.2 27.2 27.2v57.5zm84.7-118c0 14.9-12.2 27.2-27.2 27.2h-83.8c2.9-6.5 4.5-13.7 4.5-21.3 0-26.3-19.2-48.1-44.4-52.4v-11c0-14.9 12.2-27.2 27.2-27.2h2.3c9.5 15.5 26.5 25.8 46 25.8s36.5-10.3 46-25.8h2.3c14.9 0 27.2 12.2 27.2 27.2z" fill="#2b4c6f"/></svg>